<mxfile host="app.diagrams.net" modified="2022-11-20T02:13:30.116Z" agent="5.0 (Windows)" etag="DSIritAKLnMv5_p4DKWH" version="20.5.3" type="github">
  <diagram id="7WAyedM_T6Ec4kt2yx-H" name="Page-1">
    <mxGraphModel dx="1422" dy="790" grid="1" gridSize="10" guides="1" tooltips="1" connect="1" arrows="1" fold="1" page="1" pageScale="1" pageWidth="850" pageHeight="1100" math="0" shadow="0">
      <root>
        <mxCell id="0" />
        <mxCell id="1" parent="0" />
        <mxCell id="PndahoAfc0O1e4ZNEpAo-3" value="POS AND INVENTORY SYSTEM" style="text;html=1;strokeColor=none;fillColor=none;align=center;verticalAlign=middle;whiteSpace=wrap;rounded=0;fontSize=27;fontStyle=0;fontFamily=Times New Roman;" vertex="1" parent="1">
          <mxGeometry x="425" y="30" width="720" height="20" as="geometry" />
        </mxCell>
        <mxCell id="PndahoAfc0O1e4ZNEpAo-4" value="" style="whiteSpace=wrap;html=1;aspect=fixed;fontFamily=Times New Roman;fontSize=27;" vertex="1" parent="1">
          <mxGeometry x="370" y="100" width="920" height="920" as="geometry" />
        </mxCell>
        <mxCell id="PndahoAfc0O1e4ZNEpAo-5" value="&lt;span style=&quot;white-space: pre;&quot;&gt;Customer&lt;br&gt;&lt;/span&gt;" style="shape=umlActor;verticalLabelPosition=bottom;verticalAlign=top;html=1;fontFamily=Times New Roman;fontSize=27;" vertex="1" parent="1">
          <mxGeometry x="180" y="240" width="40" height="100" as="geometry" />
        </mxCell>
        <mxCell id="PndahoAfc0O1e4ZNEpAo-10" value="" style="edgeStyle=orthogonalEdgeStyle;rounded=0;orthogonalLoop=1;jettySize=auto;html=1;fontFamily=Times New Roman;fontSize=27;" edge="1" parent="1" source="PndahoAfc0O1e4ZNEpAo-6" target="PndahoAfc0O1e4ZNEpAo-9">
          <mxGeometry relative="1" as="geometry" />
        </mxCell>
        <mxCell id="PndahoAfc0O1e4ZNEpAo-14" value="" style="edgeStyle=orthogonalEdgeStyle;rounded=0;orthogonalLoop=1;jettySize=auto;html=1;fontFamily=Times New Roman;fontSize=27;" edge="1" parent="1" source="PndahoAfc0O1e4ZNEpAo-6" target="PndahoAfc0O1e4ZNEpAo-13">
          <mxGeometry relative="1" as="geometry" />
        </mxCell>
        <mxCell id="PndahoAfc0O1e4ZNEpAo-6" value="Admin" style="shape=umlActor;verticalLabelPosition=bottom;verticalAlign=top;html=1;fontFamily=Times New Roman;fontSize=27;" vertex="1" parent="1">
          <mxGeometry x="180" y="510" width="40" height="100" as="geometry" />
        </mxCell>
        <mxCell id="PndahoAfc0O1e4ZNEpAo-7" value="Manager" style="shape=umlActor;verticalLabelPosition=bottom;verticalAlign=top;html=1;fontFamily=Times New Roman;fontSize=27;" vertex="1" parent="1">
          <mxGeometry x="1400" y="480" width="40" height="100" as="geometry" />
        </mxCell>
        <mxCell id="PndahoAfc0O1e4ZNEpAo-8" value="Cashier" style="shape=umlActor;verticalLabelPosition=bottom;verticalAlign=top;html=1;fontFamily=Times New Roman;fontSize=27;" vertex="1" parent="1">
          <mxGeometry x="1400" y="220" width="40" height="100" as="geometry" />
        </mxCell>
        <mxCell id="PndahoAfc0O1e4ZNEpAo-9" value="&lt;div&gt;Super &lt;br&gt;&lt;/div&gt;&lt;div&gt;Admin&lt;/div&gt;" style="shape=umlActor;verticalLabelPosition=bottom;verticalAlign=top;html=1;fontFamily=Times New Roman;fontSize=27;" vertex="1" parent="1">
          <mxGeometry x="140" y="790" width="40" height="100" as="geometry" />
        </mxCell>
        <mxCell id="PndahoAfc0O1e4ZNEpAo-13" value="Admin" style="shape=umlActor;verticalLabelPosition=bottom;verticalAlign=top;html=1;fontFamily=Times New Roman;fontSize=27;" vertex="1" parent="1">
          <mxGeometry x="220" y="790" width="40" height="100" as="geometry" />
        </mxCell>
      </root>
    </mxGraphModel>
  </diagram>
</mxfile>
